<svg width="117" height="130" viewBox="0 0 117 130" fill="none" xmlns="http://www.w3.org/2000/svg">
<g clip-path="url(#clip0_1_2)">
<rect x="7.78539" y="41.275" width="101.426" height="80.4567" rx="22" stroke="black" stroke-width="16"/>
<mask id="path-2-inside-1_1_2" fill="white">
<path d="M98.4982 48.0658C98.4982 41.8132 97.4635 35.6219 95.4534 29.8452C93.4432 24.0686 90.4968 18.8198 86.7824 14.3986C83.0681 9.97733 78.6585 6.4702 73.8055 4.07744C68.9525 1.68468 63.751 0.45314 58.4982 0.45314C53.2453 0.453141 48.0439 1.68468 43.1908 4.07744C38.3378 6.4702 33.9282 9.97733 30.2139 14.3986C26.4996 18.8198 23.5532 24.0686 21.543 29.8452C19.5328 35.6219 18.4982 41.8132 18.4982 48.0658L58.4982 48.0658H98.4982Z"/>
</mask>
<path d="M98.4982 48.0658C98.4982 41.8132 97.4635 35.6219 95.4534 29.8452C93.4432 24.0686 90.4968 18.8198 86.7824 14.3986C83.0681 9.97733 78.6585 6.4702 73.8055 4.07744C68.9525 1.68468 63.751 0.45314 58.4982 0.45314C53.2453 0.453141 48.0439 1.68468 43.1908 4.07744C38.3378 6.4702 33.9282 9.97733 30.2139 14.3986C26.4996 18.8198 23.5532 24.0686 21.543 29.8452C19.5328 35.6219 18.4982 41.8132 18.4982 48.0658L58.4982 48.0658H98.4982Z" stroke="black" stroke-width="32" mask="url(#path-2-inside-1_1_2)"/>
</g>
<defs>
<clipPath id="clip0_1_2">
<rect width="117" height="130" fill="white"/>
</clipPath>
</defs>
</svg>
