<svg xmlns="http://www.w3.org/2000/svg" fill="none" viewBox="21.33 53.37 594.17 290.25">
<path d="M125.521 224.14C125.521 226.7 124.054 227.98 121.121 227.98C118.187 227.98 116.721 226.7 116.721 224.14V167.34C116.721 164.78 118.187 163.5 121.121 163.5C124.054 163.5 125.521 164.78 125.521 167.34V179.34H142.401C145.121 179.34 147.947 180.353 150.881 182.38C153.761 184.407 155.201 187.607 155.201 191.98V224.14C155.201 226.7 153.734 227.98 150.801 227.98C147.867 227.98 146.401 226.7 146.401 224.14V192.7C146.401 191.313 145.974 189.98 145.121 188.7L145.201 188.78C144.507 187.5 143.094 186.86 140.961 186.86H125.521V224.14ZM177.863 227.5C176.21 227.5 174.637 227.287 173.143 226.86C171.65 226.38 170.21 225.713 168.823 224.86V224.94C166.21 223.287 164.903 220.247 164.903 215.82V211.9C164.903 209.713 165.277 207.82 166.023 206.22C166.823 204.567 167.917 203.26 169.303 202.3H169.223C170.557 201.393 171.97 200.727 173.463 200.3C174.957 199.82 176.397 199.58 177.783 199.58H195.463V192.14C195.463 190.807 195.037 189.607 194.183 188.54C193.383 187.42 191.997 186.86 190.023 186.86H180.663C178.637 186.86 177.223 187.367 176.423 188.38C175.677 189.34 175.303 190.487 175.303 191.82V192.46C175.303 195.233 173.81 196.62 170.823 196.62C167.837 196.62 166.343 195.233 166.343 192.46V191.74C166.343 189.553 166.717 187.713 167.463 186.22C168.263 184.727 169.33 183.473 170.663 182.46H170.583C171.97 181.553 173.41 180.807 174.903 180.22C176.45 179.633 177.917 179.34 179.303 179.34H191.463C192.797 179.34 194.21 179.633 195.703 180.22C197.25 180.807 198.69 181.553 200.023 182.46H199.943C201.33 183.473 202.397 184.807 203.143 186.46C203.89 188.06 204.263 189.927 204.263 192.06V224.14C204.263 226.7 202.797 227.98 199.863 227.98C199.277 227.98 198.717 227.953 198.183 227.9C197.703 227.847 197.25 227.713 196.823 227.5C196.45 227.233 196.13 226.887 195.863 226.46C195.65 225.98 195.543 225.367 195.543 224.62L195.463 207.1H179.303C178.13 207.1 177.223 207.233 176.583 207.5C175.943 207.767 175.437 208.193 175.063 208.78C174.637 209.687 174.317 210.407 174.103 210.94C173.943 211.42 173.863 211.98 173.863 212.62V215.74C173.863 217.127 174.263 218.193 175.063 218.94C175.917 219.633 177.357 219.98 179.383 219.98H188.343C190.317 219.98 191.303 221.233 191.303 223.74C191.303 224.807 191.063 225.713 190.583 226.46C190.103 227.153 189.357 227.5 188.343 227.5H177.863ZM223.331 224.14C223.331 225.42 222.878 226.38 221.971 227.02C221.065 227.66 220.078 227.98 219.011 227.98C216.078 227.98 214.611 226.7 214.611 224.14V167.34C214.611 164.78 216.078 163.5 219.011 163.5C221.945 163.5 223.411 164.78 223.411 167.34V179.34H240.291C243.011 179.34 245.838 180.353 248.771 182.38C251.651 184.407 253.091 187.607 253.091 191.98V215.82C253.091 220.247 251.785 223.287 249.171 224.94C246.558 226.647 243.571 227.5 240.211 227.5H230.771C228.851 227.5 227.838 226.247 227.731 223.74C227.731 221.233 228.745 219.98 230.771 219.98H238.771C240.745 219.98 242.158 219.633 243.011 218.94C243.865 218.193 244.291 217.127 244.291 215.74V192.7C244.291 191.313 243.865 189.98 243.011 188.7L243.091 188.78C242.398 187.5 240.985 186.86 238.851 186.86H223.411L223.331 224.14ZM273.373 186.86V215.98C273.373 217.367 273.666 218.433 274.253 219.18C274.839 219.927 276.093 220.3 278.013 220.3H280.093C282.173 220.3 283.159 221.527 283.053 223.98C283.053 226.487 282.066 227.74 280.093 227.74H277.453C275.746 227.74 274.146 227.527 272.653 227.1C271.159 226.62 269.719 225.953 268.333 225.1V225.18C265.719 223.473 264.413 220.433 264.413 216.06V186.86H261.293C259.373 186.86 258.359 185.607 258.253 183.1C258.253 180.593 259.266 179.34 261.293 179.34H264.413V170.78C264.413 168.22 265.933 166.94 268.973 166.94C271.906 166.94 273.373 168.22 273.373 170.78V179.34H280.013C282.093 179.34 283.079 180.593 282.973 183.1C282.973 185.607 281.986 186.86 280.013 186.86H273.373ZM298.642 224.14C298.642 226.7 297.175 227.98 294.242 227.98C291.202 227.98 289.682 226.7 289.682 224.14V191.02C289.682 186.647 290.989 183.607 293.602 181.9C296.215 180.193 299.229 179.34 302.642 179.34H311.762C313.735 179.34 314.722 180.593 314.722 183.1C314.829 185.607 313.842 186.86 311.762 186.86H303.282C301.362 186.86 300.109 187.233 299.522 187.98C298.935 188.727 298.642 189.767 298.642 191.1V224.14ZM347.086 179.34C348.473 179.34 349.886 179.633 351.326 180.22C352.82 180.807 354.26 181.553 355.646 182.46H355.566C356.953 183.473 358.02 184.807 358.766 186.46C359.513 188.06 359.886 189.927 359.886 192.06V214.78C359.886 219.153 358.446 222.38 355.566 224.46C352.74 226.487 349.913 227.5 347.086 227.5H334.286C332.9 227.5 331.486 227.26 330.046 226.78C328.606 226.3 327.193 225.527 325.806 224.46C322.926 222.433 321.486 219.207 321.486 214.78V192.06C321.486 189.927 321.86 188.06 322.606 186.46C323.353 184.807 324.42 183.473 325.806 182.46H325.726C327.06 181.553 328.473 180.807 329.966 180.22C331.46 179.633 332.9 179.34 334.286 179.34H347.086ZM345.646 219.98C347.62 219.98 349.006 219.42 349.806 218.3C350.66 217.18 351.086 215.98 351.086 214.7V192.14C351.086 190.807 350.66 189.607 349.806 188.54C349.006 187.42 347.62 186.86 345.646 186.86H335.726C333.753 186.86 332.34 187.42 331.486 188.54C330.686 189.607 330.286 190.807 330.286 192.14V214.7C330.286 215.98 330.686 217.18 331.486 218.3C332.34 219.42 333.753 219.98 335.726 219.98H345.646ZM378.802 224.14C378.802 226.7 377.335 227.98 374.402 227.98C371.469 227.98 370.002 226.7 370.002 224.14V191.98C370.002 189.793 370.349 187.9 371.042 186.3C371.735 184.7 372.829 183.393 374.322 182.38C377.149 180.353 379.975 179.34 382.802 179.34H395.682C398.402 179.34 401.229 180.353 404.162 182.38C407.042 184.407 408.482 187.607 408.482 191.98V224.14C408.482 226.7 407.015 227.98 404.082 227.98C401.149 227.98 399.682 226.7 399.682 224.14V192.7C399.682 191.313 399.255 189.98 398.402 188.7L398.482 188.78C397.789 187.5 396.375 186.86 394.242 186.86H384.242C382.055 186.86 380.615 187.5 379.922 188.78C379.175 189.9 378.802 191.207 378.802 192.7V224.14ZM481.295 214.78C481.295 219.153 479.855 222.38 476.975 224.46C474.148 226.487 471.321 227.5 468.495 227.5H455.055C452.228 227.5 449.481 226.487 446.815 224.46C445.535 223.393 444.548 222.06 443.855 220.46C443.161 218.807 442.815 216.913 442.815 214.78V191.98C442.815 187.66 444.148 184.46 446.815 182.38C448.148 181.42 449.508 180.673 450.895 180.14C452.335 179.553 453.721 179.26 455.055 179.26H468.495C469.775 179.26 471.188 179.527 472.735 180.06C474.281 180.54 475.721 181.207 477.055 182.06C478.335 182.967 479.348 184.22 480.095 185.82C480.895 187.42 481.295 189.313 481.295 191.5V195.5C481.295 198.06 479.828 199.34 476.895 199.34C473.961 199.34 472.495 198.06 472.495 195.5V192.06C472.495 190.727 472.068 189.527 471.215 188.46C470.415 187.34 469.028 186.78 467.055 186.78H457.055C455.081 186.78 453.668 187.34 452.815 188.46C452.015 189.527 451.615 190.727 451.615 192.06V214.7C451.615 215.98 452.015 217.18 452.815 218.3C453.668 219.42 455.081 219.98 457.055 219.98H467.055C469.028 219.98 470.415 219.42 471.215 218.3C472.068 217.18 472.495 215.98 472.495 214.7V211.02C472.495 208.513 473.961 207.26 476.895 207.26C479.828 207.26 481.295 208.513 481.295 211.02V214.78ZM517.33 199.5C518.664 199.5 520.077 199.82 521.57 200.46C523.117 201.047 524.557 201.793 525.89 202.7H525.81C527.197 203.713 528.264 205.02 529.01 206.62C529.757 208.22 530.13 210.14 530.13 212.38V214.78C530.13 219.153 528.69 222.38 525.81 224.46C524.424 225.527 523.01 226.3 521.57 226.78C520.13 227.26 518.717 227.5 517.33 227.5H503.73C502.344 227.5 500.93 227.26 499.49 226.78C498.05 226.3 496.637 225.527 495.25 224.46C492.37 222.433 490.93 219.207 490.93 214.78V213.82C490.93 211.527 492.397 210.407 495.33 210.46C498.317 210.46 499.81 211.58 499.81 213.82V214.7C499.81 215.98 500.21 217.18 501.01 218.3C501.81 219.42 503.224 219.98 505.25 219.98H515.81C517.837 219.98 519.25 219.42 520.05 218.3C520.85 217.18 521.25 215.98 521.25 214.7V212.46C521.25 211.767 521.144 211.1 520.93 210.46C520.77 209.82 520.477 209.26 520.05 208.78C519.624 208.247 519.064 207.82 518.37 207.5C517.677 207.18 516.824 207.02 515.81 207.02H504.13C501.41 207.02 498.557 206.06 495.57 204.14C492.744 202.327 491.33 199.207 491.33 194.78V192.06C491.33 189.927 491.704 188.06 492.45 186.46C493.197 184.807 494.264 183.473 495.65 182.46H495.57C496.904 181.553 498.317 180.807 499.81 180.22C501.304 179.633 502.744 179.34 504.13 179.34H516.93C518.317 179.34 519.73 179.633 521.17 180.22C522.664 180.807 524.104 181.553 525.49 182.46H525.41C526.797 183.473 527.864 184.807 528.61 186.46C529.357 188.06 529.73 189.927 529.73 192.06V192.78C529.73 193.9 529.357 194.727 528.61 195.26C527.864 195.74 526.77 196.007 525.33 196.06C522.397 196.113 520.93 195.02 520.93 192.78V192.14C520.93 190.807 520.504 189.607 519.65 188.54C518.85 187.42 517.464 186.86 515.49 186.86H505.57C503.597 186.86 502.184 187.42 501.33 188.54C500.53 189.607 500.13 190.807 500.13 192.14V194.06C500.13 195.447 500.53 196.7 501.33 197.82C502.184 198.94 503.597 199.5 505.57 199.5H517.33Z" fill="black"/>
<path d="M377.57 151.625V100.785L410.42 75.7567" stroke="black" stroke-width="4"/>
<circle cx="416.933" cy="71.6034" r="7.99875" stroke="black" stroke-width="5"/>
<circle cx="322.601" cy="71.6035" r="7.99875" stroke="black" stroke-width="5"/>
<path d="M259.249 151.625V100.785L226.399 75.7567" stroke="black" stroke-width="4"/>
<circle cx="10.4988" cy="10.4988" r="7.99875" transform="matrix(-1 0 0 1 230.385 61.1047)" stroke="black" stroke-width="5"/>
<path d="M322.601 150.595V78.2409" stroke="black" stroke-width="4"/>
<circle cx="10.4988" cy="10.4988" r="7.99875" transform="matrix(1 0 0 -1 308.897 334.865)" stroke="black" stroke-width="5"/>
<path d="M319.395 245.375V317.729" stroke="black" stroke-width="4"/>
<path d="M389.159 249.069V290.216L417.481 319.606" stroke="black" stroke-width="4"/>
<circle cx="424.226" cy="324.935" r="7.99875" stroke="black" stroke-width="5"/>
<path d="M256.044 248.5V289.647L227.722 319.037" stroke="black" stroke-width="4"/>
<circle cx="10.4988" cy="10.4988" r="7.99875" transform="matrix(-1 0 0 1 231.476 313.868)" stroke="black" stroke-width="5"/>
<path d="M425.987 202.924V220.142C425.987 220.647 425.987 221.007 425.987 221.583C425.987 221.583 425.34 221.655 425.053 221.655C424.694 221.655 424.335 221.655 424.119 221.944C423.329 222.808 423.257 222.952 423.185 224.177C423.113 225.474 423.041 226.77 423.041 228.067C423.041 228.571 428.789 228.067 429.22 228.067C429.291 228.067 430.082 221.439 427.208 221.655C426.921 221.655 426.49 221.583 426.346 221.583V202.348C426.418 202.348 426.418 202.348 426.49 202.348C427.208 201.627 428.501 201.051 427.926 199.97C427.424 198.818 426.921 197.665 426.418 196.44C426.346 196.296 426.346 195.648 426.274 194.927V190.965C427.064 187.291 431.231 187.939 434.823 184.409C437.122 182.176 438.056 179.366 437.697 176.34C437.122 170.793 431.95 166.759 425.699 166.903C416.145 167.119 411.26 177.565 417.222 184.049C420.383 187.723 424.837 187.003 425.987 190.893V195.864C425.987 196.152 425.915 196.368 425.915 196.512C425.484 197.665 424.909 198.89 424.406 200.042C423.832 201.123 425.197 201.7 425.843 202.42H425.915L425.987 202.924Z" fill="black" stroke="black" stroke-width="0.849169" stroke-miterlimit="4.6075"/>
<path d="M467.556 57.3726L611.494 201.311" stroke="black" stroke-width="8"/>
<path d="M467.556 339.627L611.494 195.689" stroke="black" stroke-width="8"/>
<path d="M169.263 57.3726L25.3253 201.311" stroke="black" stroke-width="8"/>
<path d="M169.263 339.627L25.3253 195.689" stroke="black" stroke-width="8"/>
</svg>